# Exported from Wings 3D 1.5.4
mtllib coriolis.mtl
o Cube1
#12 vertices, 14 faces
v -1.00000000 -1.00000000 0.0000000e+0
v -1.00000000 0.0000000e+0 -1.00000000
v 0.0000000e+0 -1.00000000 -1.00000000
v -1.00000000 0.0000000e+0 1.00000000
v 0.0000000e+0 -1.00000000 1.00000000
v 0.0000000e+0 1.00000000 -1.00000000
v -1.00000000 1.00000000 0.0000000e+0
v 0.0000000e+0 1.00000000 1.00000000
v 1.00000000 -1.00000000 0.0000000e+0
v 1.00000000 0.0000000e+0 -1.00000000
v 1.00000000 0.0000000e+0 1.00000000
v 1.00000000 1.00000000 0.0000000e+0
v 0.2 0.1 1.01
v 0.2 -0.1 1.01
v -0.2 -0.1 1.01
v -0.2 0.1 1.01
vn -0.70710678 -0.70710678 0.0000000e+0
vn -0.70710678 0.0000000e+0 -0.70710678
vn 0.0000000e+0 -0.70710678 -0.70710678
vn -0.70710678 0.0000000e+0 0.70710678
vn 0.0000000e+0 -0.70710678 0.70710678
vn 0.0000000e+0 0.70710678 -0.70710678
vn -0.70710678 0.70710678 0.0000000e+0
vn 0.0000000e+0 0.70710678 0.70710678
vn 0.70710678 -0.70710678 0.0000000e+0
vn 0.70710678 0.0000000e+0 -0.70710678
vn 0.70710678 0.0000000e+0 0.70710678
vn 0.70710678 0.70710678 0.0000000e+0
g Cube1_default
usemtl default
s 1
f 1//1 2//2 3//3
f 1//1 4//4 7//7 2//2
f 1//1 5//5 4//4
f 2//2 6//6 10//10 3//3
f 2//2 7//7 6//6
f 3//3 9//9 5//5 1//1
f 3//3 10//10 9//9
f 4//4 8//8 7//7
f 5//5 9//9 11//11
f 5//5 11//11 8//8 4//4
f 6//6 12//12 10//10
f 7//7 8//8 12//12 6//6
f 8//8 11//11 12//12
f 10//10 12//12 11//11 9//9
f 16 15 14 13