# Exported from Wings 3D 1.5.4
mtllib icosahedron.mtl
o icosahedron1
#12 vertices, 20 faces
v 0.0000000e+0 1.90211303 0.0000000e+0
v 1.70130162 0.85065081 0.0000000e+0
v 0.52573111 0.85065081 1.61803399
v -1.37638192 0.85065081 1.00000000
v -1.37638192 0.85065081 -1.00000000
v 0.52573111 0.85065081 -1.61803399
v -1.70130162 -0.85065081 0.0000000e+0
v -0.52573111 -0.85065081 -1.61803399
v 1.37638192 -0.85065081 -1.00000000
v 1.37638192 -0.85065081 1.00000000
v -0.52573111 -0.85065081 1.61803399
v 0.0000000e+0 -1.90211303 0.0000000e+0
vn 2.7942283e-17 1.00000000 -1.3971142e-17
vn 0.89442719 0.44721360 0.0000000e+0
vn 0.27639320 0.44721360 0.85065081
vn -0.72360680 0.44721360 0.52573111
vn -0.72360680 0.44721360 -0.52573111
vn 0.27639320 0.44721360 -0.85065081
vn -0.89442719 -0.44721360 0.0000000e+0
vn -0.27639320 -0.44721360 -0.85065081
vn 0.72360680 -0.44721360 -0.52573111
vn 0.72360680 -0.44721360 0.52573111
vn -0.27639320 -0.44721360 0.85065081
vn -4.1913425e-17 -1.00000000 0.0000000e+0
g icosahedron1_default
usemtl default
s 1
f 1//1 3//3 2//2
f 1//1 4//4 3//3
f 1//1 5//5 4//4
f 1//1 6//6 5//5
f 2//2 6//6 1//1
f 2//2 9//9 6//6
f 2//2 10//10 9//9
f 3//3 10//10 2//2
f 3//3 11//11 10//10
f 4//4 11//11 3//3
f 5//5 7//7 4//4
f 5//5 8//8 7//7
f 6//6 8//8 5//5
f 6//6 9//9 8//8
f 7//7 11//11 4//4
f 7//7 12//12 11//11
f 8//8 12//12 7//7
f 9//9 12//12 8//8
f 10//10 12//12 9//9
f 11//11 12//12 10//10
