# Exported from Wings 3D 2.0.5
mtllib octoad.mtl
o octotoad1
#24 vertices, 26 faces
v 1.66800000 0.55600000 0.55600000
v 1.66800000 0.55600000 -0.55600000
v 1.66800000 -0.55600000 0.55600000
v 1.66800000 -0.55600000 -0.55600000
v -1.66800000 0.55600000 0.55600000
v -1.66800000 0.55600000 -0.55600000
v -1.66800000 -0.55600000 0.55600000
v -1.66800000 -0.55600000 -0.55600000
v 0.55600000 1.66800000 0.55600000
v 0.55600000 1.66800000 -0.55600000
v 0.55600000 -1.66800000 0.55600000
v 0.55600000 -1.66800000 -0.55600000
v 0.55600000 0.55600000 1.66800000
v 0.55600000 0.55600000 -1.66800000
v 0.55600000 -0.55600000 1.66800000
v 0.55600000 -0.55600000 -1.66800000
v -0.55600000 1.66800000 0.55600000
v -0.55600000 1.66800000 -0.55600000
v -0.55600000 -1.66800000 0.55600000
v -0.55600000 -1.66800000 -0.55600000
v -0.55600000 0.55600000 1.66800000
v -0.55600000 0.55600000 -1.66800000
v -0.55600000 -0.55600000 1.66800000
v -0.55600000 -0.55600000 -1.66800000
vn 0.85476344 0.36700100 0.36700100
vn 0.85476344 0.36700100 -0.36700100
vn 0.85476344 -0.36700100 0.36700100
vn 0.85476344 -0.36700100 -0.36700100
vn -0.85476344 0.36700100 0.36700100
vn -0.85476344 0.36700100 -0.36700100
vn -0.85476344 -0.36700100 0.36700100
vn -0.85476344 -0.36700100 -0.36700100
vn 0.36700100 0.85476344 0.36700100
vn 0.36700100 0.85476344 -0.36700100
vn 0.36700100 -0.85476344 0.36700100
vn 0.36700100 -0.85476344 -0.36700100
vn 0.36700100 0.36700100 0.85476344
vn 0.36700100 0.36700100 -0.85476344
vn 0.36700100 -0.36700100 0.85476344
vn 0.36700100 -0.36700100 -0.85476344
vn -0.36700100 0.85476344 0.36700100
vn -0.36700100 0.85476344 -0.36700100
vn -0.36700100 -0.85476344 0.36700100
vn -0.36700100 -0.85476344 -0.36700100
vn -0.36700100 0.36700100 0.85476344
vn -0.36700100 0.36700100 -0.85476344
vn -0.36700100 -0.36700100 0.85476344
vn -0.36700100 -0.36700100 -0.85476344
g octotoad1_default
usemtl default
s 1
f 1//1 3//3 4//4 2//2
f 1//1 13//13 15//15 3//3
f 2//2 10//10 9//9 1//1
f 2//2 14//14 10//10
f 3//3 11//11 12//12 4//4
f 3//3 15//15 11//11
f 4//4 16//16 14//14 2//2
f 5//5 17//17 18//18 6//6
f 5//5 21//21 17//17
f 6//6 8//8 7//7 5//5
f 6//6 22//22 24//24 8//8
f 7//7 23//23 21//21 5//5
f 8//8 20//20 19//19 7//7
f 8//8 24//24 20//20
f 9//9 13//13 1//1
f 9//9 17//17 21//21 13//13
f 10//10 18//18 17//17 9//9
f 11//11 19//19 20//20 12//12
f 12//12 16//16 4//4
f 12//12 20//20 24//24 16//16
f 13//13 21//21 23//23 15//15
f 14//14 22//22 18//18 10//10
f 15//15 23//23 19//19 11//11
f 16//16 24//24 22//22 14//14
f 18//18 22//22 6//6
f 19//19 23//23 7//7
